<?xml version="1.0" encoding="UTF-8" standalone="no"?>
<!-- Created with Inkscape (http://www.inkscape.org/) --><svg height="1052.3622047" id="svg2" inkscape:version="0.43" sodipodi:docbase="C:\download\SVG graphics\Mo's" sodipodi:docname="error_icons.svg" sodipodi:version="0.32" width="744.09448819" xmlns="http://www.w3.org/2000/svg" xmlns:cc="http://web.resource.org/cc/" xmlns:dc="http://purl.org/dc/elements/1.1/" xmlns:inkscape="http://www.inkscape.org/namespaces/inkscape" xmlns:rdf="http://www.w3.org/1999/02/22-rdf-syntax-ns#" xmlns:sodipodi="http://inkscape.sourceforge.net/DTD/sodipodi-0.dtd" xmlns:svg="http://www.w3.org/2000/svg" xmlns:xlink="http://www.w3.org/1999/xlink">
  <metadata>
    <rdf:RDF xmlns:cc="http://web.resource.org/cc/" xmlns:dc="http://purl.org/dc/elements/1.1/" xmlns:rdf="http://www.w3.org/1999/02/22-rdf-syntax-ns#">
      <cc:Work rdf:about="">
        <dc:title>error icons</dc:title>
        <dc:description>Two error warning icons</dc:description>
        <dc:subject>
          <rdf:Bag>
            <rdf:li>icon</rdf:li>
            <rdf:li>stop</rdf:li>
            <rdf:li>no</rdf:li>
            <rdf:li>delete</rdf:li>
            <rdf:li>error</rdf:li>
            <rdf:li>red</rdf:li>
            <rdf:li>warning</rdf:li>
            <rdf:li>cancel</rdf:li>
            <rdf:li>button</rdf:li>
            <rdf:li>negative</rdf:li>
          </rdf:Bag>
        </dc:subject>
        <dc:publisher>
          <cc:Agent rdf:about="http://www.openclipart.org/">
            <dc:title>Open Clip Art Library</dc:title>
          </cc:Agent>
        </dc:publisher>
        <dc:creator>
          <cc:Agent>
            <dc:title>Lumen Design Studio</dc:title>
          </cc:Agent>
        </dc:creator>
        <dc:rights>
          <cc:Agent>
            <dc:title>Lumen Design Studio</dc:title>
          </cc:Agent>
        </dc:rights>
        <dc:date></dc:date>
        <dc:format>image/svg+xml</dc:format>
        <dc:type rdf:resource="http://purl.org/dc/dcmitype/StillImage"/>
        <cc:license rdf:resource="http://web.resource.org/cc/PublicDomain"/>
        <dc:language>en</dc:language>
      </cc:Work>
      <cc:License rdf:about="http://web.resource.org/cc/PublicDomain">
        <cc:permits rdf:resource="http://web.resource.org/cc/Reproduction"/>
        <cc:permits rdf:resource="http://web.resource.org/cc/Distribution"/>
        <cc:permits rdf:resource="http://web.resource.org/cc/DerivativeWorks"/>
      </cc:License>
    </rdf:RDF>
  </metadata>
  <defs id="defs4">
    <linearGradient id="linearGradient5197" inkscape:collect="always">
      <stop id="stop5199" offset="0" style="stop-color:#ffffff;stop-opacity:1"/>
      <stop id="stop5201" offset="1" style="stop-color:#ff0000;stop-opacity:1"/>
    </linearGradient>
    <linearGradient id="linearGradient5190" inkscape:collect="always">
      <stop id="stop5192" offset="0" style="stop-color:#ffffff;stop-opacity:1"/>
      <stop id="stop5194" offset="1" style="stop-color:#ff0000;stop-opacity:1"/>
    </linearGradient>
    <linearGradient gradientTransform="matrix(-1,0,0,1,243.957,-106.2592)" gradientUnits="userSpaceOnUse" id="linearGradient1406" inkscape:collect="always" x1="-344.15295" x2="-395.84943" xlink:href="#linearGradient2555" y1="274.711" y2="425.39993"/>
    <linearGradient gradientTransform="matrix(-1,0,0,1,503.2346,-104.3195)" gradientUnits="userSpaceOnUse" id="linearGradient1411" inkscape:collect="always" x1="-344.15295" x2="-395.84943" xlink:href="#linearGradient2555" y1="274.711" y2="425.39993"/>
    <linearGradient gradientTransform="matrix(-1,0,0,1,503.2346,699.8982)" gradientUnits="userSpaceOnUse" id="linearGradient1386" inkscape:collect="always" x1="-344.15295" x2="-395.84943" xlink:href="#linearGradient2555" y1="274.711" y2="425.39993"/>
    <linearGradient gradientTransform="matrix(-1,0,0,1,-8.598892,-103.9259)" gradientUnits="userSpaceOnUse" id="linearGradient2864" inkscape:collect="always" x1="-344.15295" x2="-395.84943" xlink:href="#linearGradient2555" y1="274.711" y2="425.39993"/>
    <linearGradient gradientTransform="matrix(-1,0,0,1,495.1238,418.0058)" gradientUnits="userSpaceOnUse" id="linearGradient2844" inkscape:collect="always" x1="-344.15295" x2="-395.84943" xlink:href="#linearGradient2555" y1="274.711" y2="425.39993"/>
    <linearGradient gradientTransform="matrix(-1,0,0,1,920.3677,827.9691)" gradientUnits="userSpaceOnUse" id="linearGradient2840" inkscape:collect="always" x1="-344.15295" x2="-395.84943" xlink:href="#linearGradient2555" y1="274.711" y2="425.39993"/>
    <linearGradient gradientTransform="matrix(-1,0,0,1,1176.115,892.6761)" gradientUnits="userSpaceOnUse" id="linearGradient2831" inkscape:collect="always" x1="-344.15295" x2="-395.84943" xlink:href="#linearGradient2555" y1="274.711" y2="425.39993"/>
    <linearGradient gradientTransform="matrix(-1,0,0,1,-4.631092,-173.0379)" gradientUnits="userSpaceOnUse" id="linearGradient5896" inkscape:collect="always" x1="-344.15295" x2="-395.84943" xlink:href="#linearGradient2555" y1="274.711" y2="425.39993"/>
    <linearGradient gradientTransform="matrix(-1,0,0,1,240.0007,146.6365)" gradientUnits="userSpaceOnUse" id="linearGradient3513" inkscape:collect="always" x1="-344.15295" x2="-395.84943" xlink:href="#linearGradient2555" y1="274.711" y2="425.39993"/>
    <linearGradient gradientTransform="matrix(-1,0,0,1,-4.631092,419.438)" gradientUnits="userSpaceOnUse" id="linearGradient3446" inkscape:collect="always" x1="-344.15295" x2="-395.84943" xlink:href="#linearGradient2555" y1="274.711" y2="425.39993"/>
    <linearGradient gradientTransform="matrix(-1,0,0,1,245.6148,419.438)" gradientUnits="userSpaceOnUse" id="linearGradient3440" inkscape:collect="always" x1="-344.15295" x2="-395.84943" xlink:href="#linearGradient2555" y1="274.711" y2="425.39993"/>
    <linearGradient gradientTransform="matrix(-1,0,0,1,250.4934,699.8982)" gradientUnits="userSpaceOnUse" id="linearGradient3425" inkscape:collect="always" x1="-344.15295" x2="-395.84943" xlink:href="#linearGradient2555" y1="274.711" y2="425.39993"/>
    <linearGradient gradientTransform="matrix(-1,0,0,1,-11.22109,699.8982)" gradientUnits="userSpaceOnUse" id="linearGradient3412" inkscape:collect="always" x1="-344.15295" x2="-395.84943" xlink:href="#linearGradient2555" y1="274.711" y2="425.39993"/>
    <linearGradient id="linearGradient2547">
      <stop id="stop2549" offset="0" style="stop-color:#8f78bd;stop-opacity:1;"/>
      <stop id="stop2551" offset="1" style="stop-opacity:0.38039216;stop-color:#ebe3f6"/>
    </linearGradient>
    <linearGradient id="linearGradient2555" inkscape:collect="always">
      <stop id="stop2557" offset="0" style="stop-color:#ffffff;stop-opacity:1;"/>
      <stop id="stop2559" offset="1" style="stop-color:#ffffff;stop-opacity:0;"/>
    </linearGradient>
    <linearGradient gradientTransform="matrix(-1,0,0,1,-8.598892,146.6365)" gradientUnits="userSpaceOnUse" id="linearGradient1348" inkscape:collect="always" x1="-344.15295" x2="-395.84943" xlink:href="#linearGradient2555" y1="274.711" y2="425.39993"/>
    <linearGradient gradientTransform="matrix(-1,0,0,1,495.1238,418.0058)" gradientUnits="userSpaceOnUse" id="linearGradient2152" inkscape:collect="always" x1="-344.15295" x2="-395.84943" xlink:href="#linearGradient2555" y1="274.711" y2="425.39993"/>
    <linearGradient gradientTransform="matrix(0.603819,0,0,0.619709,148.8979,416.5751)" gradientUnits="userSpaceOnUse" id="linearGradient3073" inkscape:collect="always" x1="264.58200" x2="380.68460" xlink:href="#linearGradient2209" y1="296.37491" y2="553.74487"/>
    <linearGradient gradientTransform="matrix(-0.583245,0.15628,-0.160393,-0.598593,681.2397,988.416)" gradientUnits="userSpaceOnUse" id="linearGradient3069" inkscape:collect="always" x1="249.48328" x2="272.02597" xlink:href="#linearGradient2209" y1="262.87494" y2="427.54285"/>
    <linearGradient gradientTransform="matrix(-0.583245,0.15628,-0.160393,-0.598593,682.417,557.5316)" gradientUnits="userSpaceOnUse" id="linearGradient2546" inkscape:collect="always" x1="249.48328" x2="272.02597" xlink:href="#linearGradient5197" y1="262.87494" y2="427.54285"/>
    <linearGradient gradientTransform="matrix(0.603819,0,0,0.619709,150.0752,-14.30925)" gradientUnits="userSpaceOnUse" id="linearGradient2520" inkscape:collect="always" x1="264.58200" x2="380.68460" xlink:href="#linearGradient5190" y1="296.37491" y2="553.74487"/>
    <linearGradient id="linearGradient2209" inkscape:collect="always">
      <stop id="stop2211" offset="0" style="stop-color:#ffe900;stop-opacity:1;"/>
      <stop id="stop2213" offset="1" style="stop-color:#ffe900;stop-opacity:0;"/>
    </linearGradient>
    <marker id="Arrow1Lstart" inkscape:stockid="Arrow1Lstart" orient="auto" refX="0.0" refY="0.0" style="overflow:visible">
      <path d="M 0.0,0.0 L 5.0,-5.0 L -12.5,0.0 L 5.0,5.0 L 0.0,0.0 z " id="path2671" sodipodi:nodetypes="ccccc" style="fill-rule:evenodd;stroke:#000000;stroke-width:1.0pt;marker-start:none" transform="scale(0.8)"/>
    </marker>
    <marker id="Arrow2Lend" inkscape:stockid="Arrow2Lend" orient="auto" refX="0.0" refY="0.0" style="overflow:visible;">
      <path d="M 8.7185878,4.0337352 L -2.2072895,0.016013256 L 8.7185884,-4.0017078 C 6.9730900,-1.6296469 6.9831476,1.6157441 8.7185878,4.0337352 z " id="path2663" sodipodi:nodetypes="cccc" style="font-size:12.0;fill-rule:evenodd;stroke-width:0.62500000;stroke-linejoin:round;" transform="scale(1.1) rotate(180) translate(-5,0)"/>
    </marker>
    <linearGradient gradientTransform="matrix(-1,0,0,1,-187.6787,-139.1155)" gradientUnits="userSpaceOnUse" id="linearGradient5204" inkscape:collect="always" x1="-344.15295" x2="-395.84943" xlink:href="#linearGradient2555" y1="274.711" y2="425.39993"/>
    <linearGradient gradientTransform="matrix(-1,0,0,1,71.5989,-137.1758)" gradientUnits="userSpaceOnUse" id="linearGradient5212" inkscape:collect="always" x1="-344.15295" x2="-395.84943" xlink:href="#linearGradient2555" y1="274.711" y2="425.39993"/>
    <linearGradient gradientTransform="matrix(-1,0,0,1,63.4881,385.1495)" gradientUnits="userSpaceOnUse" id="linearGradient5218" inkscape:collect="always" x1="-344.15295" x2="-395.84943" xlink:href="#linearGradient2555" y1="274.711" y2="425.39993"/>
    <linearGradient gradientTransform="matrix(-1,0,0,1,71.5989,667.0419)" gradientUnits="userSpaceOnUse" id="linearGradient5224" inkscape:collect="always" x1="-344.15295" x2="-395.84943" xlink:href="#linearGradient2555" y1="274.711" y2="425.39993"/>
    <linearGradient gradientTransform="matrix(-1,0,0,1,-440.2346,-136.7822)" gradientUnits="userSpaceOnUse" id="linearGradient5233" inkscape:collect="always" x1="-344.15295" x2="-395.84943" xlink:href="#linearGradient2555" y1="274.711" y2="425.39993"/>
    <linearGradient gradientTransform="matrix(-1,0,0,1,63.4881,385.1495)" gradientUnits="userSpaceOnUse" id="linearGradient5241" inkscape:collect="always" x1="-344.15295" x2="-395.84943" xlink:href="#linearGradient2555" y1="274.711" y2="425.39993"/>
    <linearGradient gradientTransform="matrix(-1,0,0,1,-191.635,113.7802)" gradientUnits="userSpaceOnUse" id="linearGradient5249" inkscape:collect="always" x1="-344.15295" x2="-395.84943" xlink:href="#linearGradient2555" y1="274.711" y2="425.39993"/>
    <linearGradient gradientTransform="matrix(-1,0,0,1,-440.2346,113.7802)" gradientUnits="userSpaceOnUse" id="linearGradient5259" inkscape:collect="always" x1="-344.15295" x2="-395.84943" xlink:href="#linearGradient2555" y1="274.711" y2="425.39993"/>
    <linearGradient gradientTransform="matrix(-1,0,0,1,-186.0209,386.5817)" gradientUnits="userSpaceOnUse" id="linearGradient5267" inkscape:collect="always" x1="-344.15295" x2="-395.84943" xlink:href="#linearGradient2555" y1="274.711" y2="425.39993"/>
    <linearGradient gradientTransform="matrix(-1.206017,0,0,1.206017,-116.6165,-182.8203)" gradientUnits="userSpaceOnUse" id="linearGradient5273" inkscape:collect="always" x1="-344.15295" x2="-395.84943" xlink:href="#linearGradient2555" y1="274.711" y2="425.39993"/>
    <linearGradient gradientTransform="matrix(-1,0,0,1,-442.8568,667.0419)" gradientUnits="userSpaceOnUse" id="linearGradient5282" inkscape:collect="always" x1="-344.15295" x2="-395.84943" xlink:href="#linearGradient2555" y1="274.711" y2="425.39993"/>
    <linearGradient gradientTransform="matrix(-1,0,0,1,-436.2668,386.5817)" gradientUnits="userSpaceOnUse" id="linearGradient5288" inkscape:collect="always" x1="-344.15295" x2="-395.84943" xlink:href="#linearGradient2555" y1="274.711" y2="425.39993"/>
    <linearGradient gradientTransform="matrix(0.603819,0.000000,0.000000,0.619709,148.8979,416.5751)" gradientUnits="userSpaceOnUse" id="linearGradient1414" inkscape:collect="always" x1="264.58200" x2="380.68460" xlink:href="#linearGradient2209" y1="296.37491" y2="553.74487"/>
    <linearGradient gradientTransform="matrix(-0.583245,0.156280,-0.160393,-0.598593,681.2397,988.4160)" gradientUnits="userSpaceOnUse" id="linearGradient1412" inkscape:collect="always" x1="249.48328" x2="272.02597" xlink:href="#linearGradient2209" y1="262.87494" y2="427.54285"/>
    <linearGradient gradientTransform="matrix(-0.583245,0.156280,-0.160393,-0.598593,682.4170,557.5316)" gradientUnits="userSpaceOnUse" id="linearGradient1409" inkscape:collect="always" x1="249.48328" x2="272.02597" xlink:href="#linearGradient2209" y1="262.87494" y2="427.54285"/>
    <linearGradient gradientTransform="matrix(0.603819,0.000000,0.000000,0.619709,150.0752,-14.30925)" gradientUnits="userSpaceOnUse" id="linearGradient1407" inkscape:collect="always" x1="264.58200" x2="380.68460" xlink:href="#linearGradient2209" y1="296.37491" y2="553.74487"/>
    <marker id="marker1396" inkscape:stockid="Arrow1Lstart" orient="auto" refX="0.0" refY="0.0" style="overflow:visible">
      <path d="M 0.0,0.0 L 5.0,-5.0 L -12.5,0.0 L 5.0,5.0 L 0.0,0.0 z " id="path1398" sodipodi:nodetypes="ccccc" style="fill-rule:evenodd;stroke:#000000;stroke-width:1.0pt;marker-start:none" transform="scale(0.8)"/>
    </marker>
    <marker id="marker1392" inkscape:stockid="Arrow2Lend" orient="auto" refX="0.0" refY="0.0" style="overflow:visible;">
      <path d="M 8.7185878,4.0337352 L -2.2072895,0.016013256 L 8.7185884,-4.0017078 C 6.9730900,-1.6296469 6.9831476,1.6157441 8.7185878,4.0337352 z " id="path1394" sodipodi:nodetypes="cccc" style="font-size:12.0;fill-rule:evenodd;stroke-width:0.62500000;stroke-linejoin:round;" transform="scale(1.1) rotate(180) translate(-5,0)"/>
    </marker>
    <linearGradient gradientTransform="matrix(-0.583245,0.15628,-0.160393,-0.598593,682.417,557.5316)" gradientUnits="userSpaceOnUse" id="linearGradient1434" inkscape:collect="always" x1="249.48328" x2="272.02597" xlink:href="#linearGradient5197" y1="262.87494" y2="427.54285"/>
    <linearGradient gradientTransform="matrix(0.603819,0,0,0.619709,150.0752,-14.30925)" gradientUnits="userSpaceOnUse" id="linearGradient1436" inkscape:collect="always" x1="264.58200" x2="380.68460" xlink:href="#linearGradient5190" y1="296.37491" y2="553.74487"/>
  </defs>
  <sodipodi:namedview bordercolor="#666666" borderopacity="1.0" id="base" inkscape:current-layer="layer1" inkscape:cx="559.15683" inkscape:cy="429.64842" inkscape:document-units="px" inkscape:pageopacity="0.0" inkscape:pageshadow="2" inkscape:window-height="729" inkscape:window-width="1225" inkscape:window-x="106" inkscape:window-y="249" inkscape:zoom="0.35" pagecolor="#ffffff"/>
  <g id="layer1" inkscape:groupmode="layer" inkscape:label="Layer 1">
    <rect height="265.43124" id="rect3417" inkscape:export-filename="C:\Documents and Settings\Molumen\Desktop\path3511111.png" inkscape:export-xdpi="7.7063322" inkscape:export-ydpi="7.7063322" rx="72.361031" ry="72.361031" style="fill:#f00a10;fill-opacity:1;fill-rule:evenodd;stroke:none;stroke-width:0.875;stroke-linecap:square;stroke-linejoin:miter;stroke-miterlimit:4;stroke-dasharray:0.875, 1.75;stroke-dashoffset:0;stroke-opacity:1" transform="scale(-1,1)" width="267.60977" x="-499.4924" y="191.02792"/>
    <g id="g3479" inkscape:export-filename="C:\Documents and Settings\Molumen\Desktop\path3511111.png" inkscape:export-xdpi="7.7063322" inkscape:export-ydpi="7.7063322" transform="matrix(1.206017,0,0,1.206017,-273.8491,-568.2308)">
      <path d="M 554.12665,739.60331 L 589.90441,703.82555 C 593.65249,700.07729 595.52656,695.9316 595.52663,691.38852 C 595.2994,687.29953 593.42534,683.4946 589.90441,679.97371 C 586.7241,676.79337 582.97596,674.97609 578.65997,674.52187 C 574.23029,674.18102 570.02784,675.99831 566.05257,679.97371 L 530.27481,715.75147 L 494.49705,679.97371 C 490.86252,676.33904 486.77364,674.52176 482.23038,674.52187 C 477.80081,674.8625 473.93909,676.67978 470.64521,679.97372 C 467.80576,682.8131 466.15885,686.50446 465.70446,691.04778 C 465.25021,695.81803 466.89713,700.07728 470.64521,703.82556 L 506.42296,739.60332 L 470.64521,775.38107 C 467.46502,778.56112 465.70454,782.70679 465.36372,787.81812 C 465.70454,792.24751 467.46502,796.05245 470.64521,799.23291 C 473.59834,802.18578 477.34649,804.00305 481.88965,804.68477 C 486.31932,805.02528 490.52177,803.208 494.49705,799.23291 L 530.2748,763.45516 L 566.05257,799.23292 C 569.80067,802.98083 573.94635,804.62775 578.4896,804.17365 C 583.14633,803.83269 586.95127,802.18577 589.90441,799.23292 C 592.63027,796.50677 594.27718,792.81542 594.84514,788.15885 C 595.52656,783.61543 593.87965,779.35618 589.90441,775.38107 L 554.12665,739.60331" id="path3419" style="font-size:454.95709229px;font-style:normal;font-variant:normal;font-weight:normal;font-stretch:normal;line-height:100%;writing-mode:lr-tb;text-anchor:start;fill:#cb1e0e;fill-opacity:1;stroke:none;stroke-width:1px;stroke-linecap:butt;stroke-linejoin:miter;stroke-opacity:1;font-family:GOST type B"/>
      <path d="M 552.27953,739.60331 L 585.26668,706.61616 C 588.72241,703.16026 590.45031,699.33793 590.45037,695.1492 C 590.24087,691.37914 588.51298,687.87099 585.26668,684.62473 C 582.33443,681.69245 578.87864,680.01691 574.89929,679.59812 C 570.81512,679.28386 566.94045,680.9594 563.27525,684.62473 L 530.2881,717.61188 L 497.30095,684.62473 C 493.94991,681.27356 490.17995,679.59802 485.99106,679.59812 C 481.90699,679.91218 478.34648,681.58772 475.30952,684.62474 C 472.69154,687.24265 471.17309,690.64609 470.75414,694.83504 C 470.33532,699.23321 471.85378,703.16025 475.30952,706.61617 L 508.29666,739.60332 L 475.30952,772.59046 C 472.37738,775.52247 470.75421,779.34478 470.43998,784.05743 C 470.75421,788.14134 472.37738,791.6495 475.30952,794.58189 C 478.03231,797.30444 481.48811,798.97996 485.67691,799.60851 C 489.76107,799.92246 493.63574,798.24693 497.30095,794.58189 L 530.28809,761.59475 L 563.27525,794.5819 C 566.731,798.03748 570.55332,799.55594 574.74221,799.13726 C 579.03572,798.82289 582.54388,797.30443 585.26668,794.5819 C 587.77993,792.06838 589.29838,788.66495 589.82204,784.37159 C 590.45031,780.18255 588.93186,776.25551 585.26668,772.59046 L 552.27953,739.60331" id="path3421" style="font-size:454.95709229px;font-style:normal;font-variant:normal;font-weight:normal;font-stretch:normal;line-height:100%;writing-mode:lr-tb;text-anchor:start;fill:#ffffff;fill-opacity:1;stroke:none;stroke-width:1px;stroke-linecap:butt;stroke-linejoin:miter;stroke-opacity:1;font-family:GOST type B"/>
    </g>
    <path d="M 428.78985,202.37525 L 302.58534,202.37525 C 269.17866,202.37525 242.28447,229.26943 242.28447,262.6761 L 242.28447,384.81079 C 243.36579,410.88754 247.52522,394.40237 255.44248,365.52416 C 264.64403,331.96179 294.61067,302.62783 331.10475,280.64371 C 358.95952,263.86403 390.1376,253.14917 446.89,252.12984 C 479.07594,251.5518 476.23445,210.69484 428.78985,202.37525 z " id="path3423" inkscape:export-filename="C:\Documents and Settings\Molumen\Desktop\path3511111.png" inkscape:export-xdpi="7.7063322" inkscape:export-ydpi="7.7063322" sodipodi:nodetypes="ccccsssc" style="fill:url(#linearGradient5273);fill-opacity:1;fill-rule:evenodd;stroke:none;stroke-width:0.875;stroke-linecap:square;stroke-linejoin:miter;stroke-miterlimit:4;stroke-dasharray:0.875, 1.75;stroke-dashoffset:0;stroke-opacity:1"/>
    <g id="g3892" inkscape:label="Layer 1" transform="translate(-17.25559,418.1089)">
      <path d="M 634.28571 559.50507 A 250 250 0 1 1  134.28571,559.50507 A 250 250 0 1 1  634.28571 559.50507 z" id="path2174" sodipodi:cx="384.28571" sodipodi:cy="559.50507" sodipodi:rx="250" sodipodi:ry="250" sodipodi:type="arc" style="opacity:1;fill:#ff0000;fill-opacity:1;fill-rule:evenodd;stroke:#cb0000;stroke-width:20.127882;stroke-linecap:butt;stroke-linejoin:miter;marker-start:none;marker-mid:none;marker-end:none;stroke-miterlimit:4;stroke-dasharray:none;stroke-dashoffset:0;stroke-opacity:1" transform="matrix(0.593356,0,0,0.593356,150.2064,-24.71398)"/>
      <path d="M 414.28624,439.23147 C 451.11531,429.36316 480.36448,405.0871 497.87438,373.82859 C 526.31357,306.50342 420.20678,464.12877 332.56619,435.49317 C 358.04372,444.83685 386.34671,446.71785 414.28624,439.23147 z " id="path2540" sodipodi:nodetypes="cccc" style="opacity:1;fill:url(#linearGradient2546);fill-opacity:1;fill-rule:evenodd;stroke:none;stroke-width:0;stroke-miterlimit:4;stroke-dasharray:none;stroke-dashoffset:0;stroke-opacity:1"/>
      <path d="M 378.45096,169.3569 C 302.19445,169.3569 240.30843,232.8714 240.30843,311.13455 C 240.30843,321.71906 241.48301,332.0212 243.62944,341.94567 C 319.43747,196.01915 401.11478,287.87581 506.42289,257.7428 C 485.85794,205.92595 436.30123,169.3569 378.45096,169.3569 z " id="path2197" sodipodi:nodetypes="ccccc" style="opacity:1;fill:url(#linearGradient2520);fill-opacity:1;fill-rule:evenodd;stroke:none;stroke-width:0;stroke-miterlimit:4;stroke-dasharray:none;stroke-dashoffset:0;stroke-opacity:1"/>
      <path d="M 420.53809,383.36132 L 378.61886,341.44208 L 336.30535,383.75559 L 301.74069,349.19093 L 344.0542,306.87742 L 302.13495,264.95818 L 335.77964,231.31349 L 377.69888,273.23274 L 420.14382,230.7878 L 454.70848,265.35246 L 412.26354,307.7974 L 454.18278,349.71663 L 420.53809,383.36132" id="text2705" sodipodi:nodetypes="ccccccccccccc" style="font-size:660.22442627px;font-style:italic;font-variant:normal;font-weight:bold;font-stretch:normal;line-height:100%;writing-mode:lr-tb;text-anchor:start;opacity:0.73529412;fill:#ffffff;fill-opacity:1;stroke:none;stroke-width:1px;stroke-linecap:butt;stroke-linejoin:miter;stroke-opacity:1;font-family:Arial"/>
      <path d="M 420.29542,377.49932 L 378.55326,335.75716 L 336.48241,377.82801 L 307.66826,349.01386 L 349.73911,306.94301 L 307.99695,265.20085 L 336.04418,237.15362 L 377.78634,278.89578 L 419.96674,236.71538 L 448.78089,265.52953 L 406.60049,307.70993 L 448.34265,349.45209 L 420.29542,377.49932" id="text2713" style="font-size:550.38305664px;font-style:italic;font-variant:normal;font-weight:bold;font-stretch:normal;line-height:100%;writing-mode:lr-tb;text-anchor:start;opacity:1;fill:#ffffff;fill-opacity:1;stroke:none;stroke-width:1px;stroke-linecap:butt;stroke-linejoin:miter;stroke-opacity:1;font-family:Arial"/>
    </g>
    <g id="g1416" inkscape:label="Layer 1" transform="translate(-708.6709,647.1952)">
      <path d="M 754.09834,345.02812 L 758.28779,345.02812 L 758.28779,345.85822 L 755.08467,345.85822 L 755.08467,348.00662 L 757.97529,348.00662 L 757.97529,348.83672 L 755.08467,348.83672 L 755.08467,352.31812 L 754.09834,352.31812 L 754.09834,345.02812 M 762.26728,347.68922 C 762.16637,347.63062 762.05569,347.58832 761.93525,347.56232 C 761.81806,347.53302 761.68785,347.51832 761.54463,347.51832 C 761.03681,347.51832 760.64619,347.68432 760.37275,348.01642 C 760.10257,348.34512 759.96748,348.81882 759.96748,349.43732 L 759.96748,352.31812 L 759.06416,352.31812 L 759.06416,346.84942 L 759.96748,346.84942 L 759.96748,347.69902 C 760.15628,347.36702 760.40205,347.12122 760.70478,346.96172 C 761.00752,346.79892 761.37535,346.71752 761.8083,346.71752 C 761.87014,346.71752 761.9385,346.72242 762.01338,346.73222 C 762.08824,346.73872 762.17125,346.75012 762.2624,346.76642 L 762.26728,347.68922 M 767.66279,349.35912 L 767.66279,349.79862 L 763.53193,349.79862 C 763.57099,350.41712 763.75654,350.88912 764.08857,351.21462 C 764.42386,351.53692 764.88935,351.69802 765.48506,351.69802 C 765.8301,351.69802 766.16376,351.65572 766.48603,351.57112 C 766.81155,351.48642 767.13382,351.35952 767.45283,351.19022 L 767.45283,352.03982 C 767.13056,352.17652 766.80016,352.28072 766.46162,352.35232 C 766.12307,352.42392 765.77965,352.45972 765.43135,352.45972 C 764.55895,352.45972 763.86722,352.20582 763.35615,351.69802 C 762.84834,351.19022 762.59443,350.50332 762.59443,349.63752 C 762.59443,348.74232 762.83532,348.03262 763.31709,347.50862 C 763.80211,346.98122 764.45478,346.71752 765.2751,346.71752 C 766.01077,346.71752 766.59182,346.95522 767.01826,347.43042 C 767.44794,347.90242 767.66279,348.54532 767.66279,349.35912 M 766.76435,349.09552 C 766.75784,348.60392 766.61949,348.21172 766.34931,347.91872 C 766.08238,347.62572 765.72757,347.47932 765.28486,347.47932 C 764.78356,347.47932 764.38154,347.62092 764.07881,347.90412 C 763.77933,348.18732 763.6068,348.58602 763.56123,349.10042 L 766.76435,349.09552 M 773.7956,349.35912 L 773.7956,349.79862 L 769.66474,349.79862 C 769.7038,350.41712 769.88935,350.88912 770.22139,351.21462 C 770.55667,351.53692 771.02216,351.69802 771.61787,351.69802 C 771.96292,351.69802 772.29658,351.65572 772.61885,351.57112 C 772.94436,351.48642 773.26663,351.35952 773.58564,351.19022 L 773.58564,352.03982 C 773.26337,352.17652 772.93297,352.28072 772.59443,352.35232 C 772.25589,352.42392 771.91246,352.45972 771.56416,352.45972 C 770.69176,352.45972 770.00003,352.20582 769.48896,351.69802 C 768.98115,351.19022 768.72724,350.50332 768.72724,349.63752 C 768.72724,348.74232 768.96813,348.03262 769.4499,347.50862 C 769.93493,346.98122 770.58759,346.71752 771.40791,346.71752 C 772.14358,346.71752 772.72464,346.95522 773.15107,347.43042 C 773.58076,347.90242 773.7956,348.54532 773.7956,349.35912 M 772.89717,349.09552 C 772.89065,348.60392 772.75231,348.21172 772.48213,347.91872 C 772.2152,347.62572 771.86038,347.47932 771.41767,347.47932 C 770.91637,347.47932 770.51435,347.62092 770.21162,347.90412 C 769.91214,348.18732 769.73961,348.58602 769.69404,349.10042 L 772.89717,349.09552 M 782.03291,349.52032 C 782.0329,348.86922 781.89781,348.36472 781.62764,348.00662 C 781.3607,347.64852 780.98473,347.46952 780.49971,347.46952 C 780.01793,347.46952 779.64196,347.64852 779.37178,348.00662 C 779.10485,348.36472 778.97138,348.86922 778.97139,349.52032 C 778.97138,350.16812 779.10485,350.67102 779.37178,351.02912 C 779.64196,351.38712 780.01793,351.56622 780.49971,351.56622 C 780.98473,351.56622 781.3607,351.38712 781.62764,351.02912 C 781.89781,350.67102 782.0329,350.16812 782.03291,349.52032 M 782.93135,351.63942 C 782.93134,352.57042 782.72464,353.26212 782.31123,353.71462 C 781.89781,354.17032 781.26468,354.39822 780.41181,354.39822 C 780.09606,354.39822 779.79821,354.37382 779.51826,354.32502 C 779.23831,354.27942 778.9665,354.20782 778.70283,354.11012 L 778.70283,353.23612 C 778.9665,353.37932 779.22692,353.48512 779.48408,353.55352 C 779.74124,353.62182 780.00328,353.65602 780.27021,353.65602 C 780.8594,353.65602 781.30048,353.50142 781.59346,353.19212 C 781.88642,352.88622 782.0329,352.42232 782.03291,351.80052 L 782.03291,351.35622 C 781.84736,351.67852 781.60973,351.91942 781.32002,352.07892 C 781.0303,352.23842 780.68362,352.31812 780.27998,352.31812 C 779.6094,352.31812 779.06904,352.06262 778.65889,351.55152 C 778.24873,351.04052 778.04365,350.36342 778.04365,349.52032 C 778.04365,348.67392 778.24873,347.99522 778.65889,347.48412 C 779.06904,346.97312 779.6094,346.71752 780.27998,346.71752 C 780.68362,346.71752 781.0303,346.79732 781.32002,346.95682 C 781.60973,347.11632 781.84736,347.35722 782.03291,347.67952 L 782.03291,346.84942 L 782.93135,346.84942 L 782.93135,351.63942 M 787.95088,347.68922 C 787.84996,347.63062 787.73929,347.58832 787.61885,347.56232 C 787.50166,347.53302 787.37145,347.51832 787.22822,347.51832 C 786.72041,347.51832 786.32978,347.68432 786.05635,348.01642 C 785.78616,348.34512 785.65107,348.81882 785.65107,349.43732 L 785.65107,352.31812 L 784.74775,352.31812 L 784.74775,346.84942 L 785.65107,346.84942 L 785.65107,347.69902 C 785.83987,347.36702 786.08564,347.12122 786.38838,346.96172 C 786.69111,346.79892 787.05895,346.71752 787.49189,346.71752 C 787.55374,346.71752 787.6221,346.72242 787.69697,346.73222 C 787.77184,346.73872 787.85485,346.75012 787.94599,346.76642 L 787.95088,347.68922 M 791.36885,349.56912 C 790.64293,349.56912 790.14,349.65212 789.86006,349.81812 C 789.58011,349.98412 789.44013,350.26732 789.44014,350.66772 C 789.44013,350.98672 789.5443,351.24072 789.75264,351.42952 C 789.96422,351.61502 790.25068,351.70782 790.61201,351.70782 C 791.11005,351.70782 791.50882,351.53202 791.8083,351.18042 C 792.11103,350.82562 792.2624,350.35522 792.2624,349.76932 L 792.2624,349.56912 L 791.36885,349.56912 M 793.16084,349.19802 L 793.16084,352.31812 L 792.2624,352.31812 L 792.2624,351.48802 C 792.05732,351.82012 791.80179,352.06582 791.4958,352.22542 C 791.18981,352.38162 790.81546,352.45972 790.37275,352.45972 C 789.81285,352.45972 789.36689,352.30352 789.03486,351.99102 C 788.70609,351.67522 788.5417,351.25372 788.5417,350.72632 C 788.5417,350.11112 788.74678,349.64722 789.15693,349.33472 C 789.57034,349.02222 790.18558,348.86602 791.00264,348.86602 L 792.2624,348.86602 L 792.2624,348.77812 C 792.2624,348.36472 792.12568,348.04572 791.85224,347.82112 C 791.58206,347.59322 791.2012,347.47932 790.70967,347.47932 C 790.39716,347.47932 790.0928,347.51672 789.79658,347.59162 C 789.50036,347.66642 789.21552,347.77872 788.94209,347.92852 L 788.94209,347.09842 C 789.27086,346.97142 789.58987,346.87702 789.89912,346.81522 C 790.20836,346.75012 790.50947,346.71752 790.80244,346.71752 C 791.59345,346.71752 792.18427,346.92262 792.5749,347.33282 C 792.96552,347.74292 793.16083,348.36472 793.16084,349.19802 M 795.90498,351.49782 L 795.90498,354.39822 L 795.00166,354.39822 L 795.00166,346.84942 L 795.90498,346.84942 L 795.90498,347.67952 C 796.09378,347.35392 796.33141,347.11312 796.61787,346.95682 C 796.90758,346.79732 797.25263,346.71752 797.65303,346.71752 C 798.31708,346.71752 798.85582,346.98122 799.26924,347.50862 C 799.6859,348.03592 799.89423,348.72932 799.89424,349.58862 C 799.89423,350.44802 799.6859,351.14142 799.26924,351.66872 C 798.85582,352.19612 798.31708,352.45972 797.65303,352.45972 C 797.25263,352.45972 796.90758,352.38162 796.61787,352.22542 C 796.33141,352.06582 796.09378,351.82332 795.90498,351.49782 M 798.96162,349.58862 C 798.96161,348.92782 798.8249,348.41022 798.55146,348.03592 C 798.28128,347.65832 797.90856,347.46952 797.4333,347.46952 C 796.95804,347.46952 796.58369,347.65832 796.31025,348.03592 C 796.04007,348.41022 795.90498,348.92782 795.90498,349.58862 C 795.90498,350.24942 796.04007,350.76862 796.31025,351.14622 C 796.58369,351.52062 796.95804,351.70782 797.4333,351.70782 C 797.90856,351.70782 798.28128,351.52062 798.55146,351.14622 C 798.8249,350.76862 798.96161,350.24942 798.96162,349.58862 M 805.92939,349.01732 L 805.92939,352.31812 L 805.03096,352.31812 L 805.03096,349.04662 C 805.03095,348.52912 804.93004,348.14172 804.72822,347.88452 C 804.52639,347.62742 804.22366,347.49882 803.82002,347.49882 C 803.33499,347.49882 802.9525,347.65342 802.67256,347.96272 C 802.39261,348.27192 802.25263,348.69352 802.25264,349.22732 L 802.25264,352.31812 L 801.34931,352.31812 L 801.34931,344.72052 L 802.25264,344.72052 L 802.25264,347.69902 C 802.46748,347.37022 802.71976,347.12442 803.00947,346.96172 C 803.30244,346.79892 803.63935,346.71752 804.02021,346.71752 C 804.64846,346.71752 805.12372,346.91292 805.44599,347.30352 C 805.76826,347.69082 805.92939,348.26212 805.92939,349.01732 M 807.73115,346.84942 L 808.62959,346.84942 L 808.62959,352.31812 L 807.73115,352.31812 L 807.73115,346.84942 M 807.73115,344.72052 L 808.62959,344.72052 L 808.62959,345.85822 L 807.73115,345.85822 L 807.73115,344.72052 M 814.44014,347.05932 L 814.44014,347.89922 C 814.18622,347.75922 813.93069,347.65502 813.67353,347.58672 C 813.41962,347.51512 813.16246,347.47932 812.90205,347.47932 C 812.31936,347.47932 811.86689,347.66482 811.54463,348.03592 C 811.22236,348.40372 811.06123,348.92132 811.06123,349.58862 C 811.06123,350.25602 811.22236,350.77522 811.54463,351.14622 C 811.86689,351.51412 812.31936,351.69802 812.90205,351.69802 C 813.16246,351.69802 813.41962,351.66382 813.67353,351.59552 C 813.93069,351.52392 814.18622,351.41812 814.44014,351.27812 L 814.44014,352.10822 C 814.18948,352.22542 813.92906,352.31322 813.65889,352.37182 C 813.39195,352.43042 813.10712,352.45972 812.80439,352.45972 C 811.98082,352.45972 811.32653,352.20092 810.8415,351.68342 C 810.35647,351.16582 810.11396,350.46752 810.11396,349.58862 C 810.11396,348.69672 810.3581,347.99522 810.84639,347.48412 C 811.33792,346.97312 812.01012,346.71752 812.86299,346.71752 C 813.13968,346.71752 813.40986,346.74682 813.67353,346.80542 C 813.9372,346.86082 814.19274,346.94542 814.44014,347.05932 M 819.49873,347.01052 L 819.49873,347.86012 C 819.24482,347.72992 818.98115,347.63232 818.70771,347.56712 C 818.43427,347.50202 818.15107,347.46952 817.8581,347.46952 C 817.41214,347.46952 817.07685,347.53792 816.85224,347.67462 C 816.63089,347.81132 816.52021,348.01642 816.52021,348.28982 C 816.52021,348.49812 816.59996,348.66252 816.75947,348.78302 C 816.91897,348.90022 817.23961,349.01252 817.72139,349.11992 L 818.029,349.18822 C 818.66702,349.32502 819.11949,349.51862 819.38642,349.76932 C 819.6566,350.01672 819.79169,350.36342 819.7917,350.80932 C 819.79169,351.31712 819.58987,351.71922 819.18623,352.01542 C 818.78583,352.31162 818.23408,352.45972 817.53096,352.45972 C 817.23798,352.45972 816.932,352.43042 816.61299,352.37182 C 816.29723,352.31652 815.96357,352.23192 815.61201,352.11792 L 815.61201,351.19022 C 815.94404,351.36272 816.27119,351.49292 816.59346,351.58082 C 816.91572,351.66552 817.23473,351.70782 817.55049,351.70782 C 817.97366,351.70782 818.29918,351.63622 818.52705,351.49292 C 818.75491,351.34642 818.86884,351.14142 818.86885,350.87772 C 818.86884,350.63362 818.78583,350.44642 818.61982,350.31622 C 818.45706,350.18602 818.09736,350.06062 817.54072,349.94022 L 817.22822,349.86702 C 816.67158,349.74982 816.26956,349.57072 816.02217,349.32982 C 815.77477,349.08572 815.65107,348.75202 815.65107,348.32892 C 815.65107,347.81452 815.83336,347.41742 816.19795,347.13752 C 816.56253,346.85752 817.08011,346.71752 817.75068,346.71752 C 818.08271,346.71752 818.39521,346.74202 818.68818,346.79082 C 818.98115,346.83962 819.25133,346.91292 819.49873,347.01052 M 828.31709,349.58862 C 828.31708,348.92782 828.18037,348.41022 827.90693,348.03592 C 827.63675,347.65832 827.26402,347.46952 826.78877,347.46952 C 826.31351,347.46952 825.93916,347.65832 825.66572,348.03592 C 825.39554,348.41022 825.26045,348.92782 825.26045,349.58862 C 825.26045,350.24942 825.39554,350.76862 825.66572,351.14622 C 825.93916,351.52062 826.31351,351.70782 826.78877,351.70782 C 827.26402,351.70782 827.63675,351.52062 827.90693,351.14622 C 828.18037,350.76862 828.31708,350.24942 828.31709,349.58862 M 825.26045,347.67952 C 825.44925,347.35392 825.68688,347.11312 825.97334,346.95682 C 826.26305,346.79732 826.6081,346.71752 827.00849,346.71752 C 827.67255,346.71752 828.21129,346.98122 828.62471,347.50862 C 829.04137,348.03592 829.2497,348.72932 829.24971,349.58862 C 829.2497,350.44802 829.04137,351.14142 828.62471,351.66872 C 828.21129,352.19612 827.67255,352.45972 827.00849,352.45972 C 826.6081,352.45972 826.26305,352.38162 825.97334,352.22542 C 825.68688,352.06582 825.44925,351.82332 825.26045,351.49782 L 825.26045,352.31812 L 824.35713,352.31812 L 824.35713,344.72052 L 825.26045,344.72052 L 825.26045,347.67952 M 833.01435,352.82592 C 832.76044,353.47702 832.51305,353.90182 832.27217,354.10042 C 832.03128,354.29892 831.70901,354.39822 831.30537,354.39822 L 830.5876,354.39822 L 830.5876,353.64622 L 831.11494,353.64622 C 831.36233,353.64622 831.55439,353.58772 831.69111,353.47052 C 831.82783,353.35332 831.97919,353.07662 832.14521,352.64042 L 832.30635,352.23022 L 830.09443,346.84942 L 831.04658,346.84942 L 832.75556,351.12672 L 834.46455,346.84942 L 835.4167,346.84942 L 833.01435,352.82592 M 754.09834,355.02812 L 755.08467,355.02812 L 755.08467,361.48802 L 758.63447,361.48802 L 758.63447,362.31812 L 754.09834,362.31812 L 754.09834,355.02812 M 759.37666,360.15992 L 759.37666,356.84942 L 760.2751,356.84942 L 760.2751,360.12572 C 760.27509,360.64332 760.37601,361.03232 760.57783,361.29272 C 760.77965,361.54992 761.08239,361.67852 761.48603,361.67852 C 761.97106,361.67852 762.35354,361.52392 762.63349,361.21462 C 762.91669,360.90542 763.0583,360.48382 763.0583,359.95002 L 763.0583,356.84942 L 763.95674,356.84942 L 763.95674,362.31812 L 763.0583,362.31812 L 763.0583,361.47832 C 762.8402,361.81032 762.58629,362.05772 762.29658,362.22052 C 762.01012,362.38002 761.67646,362.45972 761.2956,362.45972 C 760.66735,362.45972 760.19046,362.26442 759.86494,361.87382 C 759.53942,361.48322 759.37666,360.91192 759.37666,360.15992 M 770.0749,357.89922 C 770.29951,357.49552 770.56806,357.19772 770.88056,357.00562 C 771.19306,356.81362 771.5609,356.71752 771.98408,356.71752 C 772.55373,356.71752 772.99319,356.91772 773.30244,357.31812 C 773.61168,357.71532 773.7663,358.28172 773.76631,359.01732 L 773.76631,362.31812 L 772.86299,362.31812 L 772.86299,359.04662 C 772.86298,358.52262 772.7702,358.13362 772.58467,357.87962 C 772.39911,357.62572 772.11591,357.49882 771.73506,357.49882 C 771.26956,357.49882 770.90172,357.65342 770.63154,357.96272 C 770.36135,358.27192 770.22626,358.69352 770.22627,359.22732 L 770.22627,362.31812 L 769.32295,362.31812 L 769.32295,359.04662 C 769.32294,358.51932 769.23017,358.13032 769.04463,357.87962 C 768.85908,357.62572 768.57262,357.49882 768.18525,357.49882 C 767.72627,357.49882 767.36168,357.65502 767.0915,357.96752 C 766.82132,358.27682 766.68623,358.69672 766.68623,359.22732 L 766.68623,362.31812 L 765.78291,362.31812 L 765.78291,356.84942 L 766.68623,356.84942 L 766.68623,357.69902 C 766.8913,357.36372 767.13707,357.11632 767.42353,356.95682 C 767.70999,356.79732 768.05016,356.71752 768.44404,356.71752 C 768.84117,356.71752 769.17809,356.81852 769.45478,357.02032 C 769.73473,357.22212 769.94143,357.51512 770.0749,357.89922 M 780.22139,359.35912 L 780.22139,359.79862 L 776.09053,359.79862 C 776.12959,360.41712 776.31513,360.88912 776.64717,361.21462 C 776.98245,361.53692 777.44794,361.69802 778.04365,361.69802 C 778.3887,361.69802 778.72236,361.65572 779.04463,361.57112 C 779.37014,361.48642 779.69241,361.35952 780.01142,361.19022 L 780.01142,362.03982 C 779.68915,362.17652 779.35875,362.28072 779.02021,362.35232 C 778.68167,362.42392 778.33824,362.45972 777.98994,362.45972 C 777.11754,362.45972 776.42581,362.20582 775.91474,361.69802 C 775.40693,361.19022 775.15303,360.50332 775.15303,359.63752 C 775.15303,358.74232 775.39391,358.03262 775.87568,357.50862 C 776.36071,356.98122 777.01338,356.71752 777.83369,356.71752 C 778.56936,356.71752 779.15042,356.95522 779.57685,357.43042 C 780.00654,357.90242 780.22138,358.54532 780.22139,359.35912 M 779.32295,359.09552 C 779.31643,358.60392 779.17809,358.21172 778.90791,357.91872 C 778.64098,357.62572 778.28616,357.47932 777.84346,357.47932 C 777.34215,357.47932 776.94013,357.62092 776.6374,357.90412 C 776.33792,358.18732 776.16539,358.58602 776.11982,359.10042 L 779.32295,359.09552 M 786.22236,359.01732 L 786.22236,362.31812 L 785.32392,362.31812 L 785.32392,359.04662 C 785.32392,358.52912 785.22301,358.14172 785.02119,357.88452 C 784.81936,357.62742 784.51663,357.49882 784.11299,357.49882 C 783.62796,357.49882 783.24547,357.65342 782.96553,357.96272 C 782.68558,358.27192 782.5456,358.69352 782.5456,359.22732 L 782.5456,362.31812 L 781.64228,362.31812 L 781.64228,356.84942 L 782.5456,356.84942 L 782.5456,357.69902 C 782.76044,357.37022 783.01272,357.12442 783.30244,356.96172 C 783.59541,356.79892 783.93232,356.71752 784.31318,356.71752 C 784.94143,356.71752 785.41669,356.91292 785.73896,357.30352 C 786.06122,357.69082 786.22236,358.26212 786.22236,359.01732 M 792.2331,355.83862 L 792.2331,361.50762 L 793.42451,361.50762 C 794.43037,361.50762 795.16604,361.27972 795.63154,360.82402 C 796.10029,360.36832 796.33466,359.64892 796.33467,358.66582 C 796.33466,357.68922 796.10029,356.97472 795.63154,356.52222 C 795.16604,356.06652 794.43037,355.83862 793.42451,355.83862 L 792.2331,355.83862 M 791.24678,355.02812 L 793.27314,355.02812 C 794.6859,355.02812 795.72268,355.32272 796.38349,355.91192 C 797.0443,356.49782 797.3747,357.41582 797.37471,358.66582 C 797.3747,359.92232 797.04267,360.84512 796.37861,361.43432 C 795.71454,362.02352 794.67939,362.31812 793.27314,362.31812 L 791.24678,362.31812 L 791.24678,355.02812 M 803.58076,359.35912 L 803.58076,359.79862 L 799.4499,359.79862 C 799.48896,360.41712 799.67451,360.88912 800.00654,361.21462 C 800.34183,361.53692 800.80732,361.69802 801.40303,361.69802 C 801.74807,361.69802 802.08173,361.65572 802.404,361.57112 C 802.72952,361.48642 803.05178,361.35952 803.3708,361.19022 L 803.3708,362.03982 C 803.04853,362.17652 802.71813,362.28072 802.37959,362.35232 C 802.04104,362.42392 801.69762,362.45972 801.34931,362.45972 C 800.47692,362.45972 799.78519,362.20582 799.27412,361.69802 C 798.76631,361.19022 798.5124,360.50332 798.5124,359.63752 C 798.5124,358.74232 798.75329,358.03262 799.23506,357.50862 C 799.72008,356.98122 800.37275,356.71752 801.19306,356.71752 C 801.92874,356.71752 802.50979,356.95522 802.93623,357.43042 C 803.36591,357.90242 803.58075,358.54532 803.58076,359.35912 M 802.68232,359.09552 C 802.67581,358.60392 802.53746,358.21172 802.26728,357.91872 C 802.00035,357.62572 801.64554,357.47932 801.20283,357.47932 C 800.70152,357.47932 800.29951,357.62092 799.99678,357.90412 C 799.6973,358.18732 799.52477,358.58602 799.4792,359.10042 L 802.68232,359.09552 M 808.52217,357.01052 L 808.52217,357.86012 C 808.26826,357.72992 808.00458,357.63232 807.73115,357.56712 C 807.45771,357.50202 807.17451,357.46952 806.88154,357.46952 C 806.43558,357.46952 806.10029,357.53792 805.87568,357.67462 C 805.65433,357.81132 805.54365,358.01642 805.54365,358.28982 C 805.54365,358.49812 805.6234,358.66252 805.78291,358.78302 C 805.94241,358.90022 806.26305,359.01252 806.74482,359.11992 L 807.05244,359.18822 C 807.69046,359.32502 808.14293,359.51862 808.40986,359.76932 C 808.68004,360.01672 808.81513,360.36342 808.81514,360.80932 C 808.81513,361.31712 808.61331,361.71922 808.20967,362.01542 C 807.80927,362.31162 807.25752,362.45972 806.55439,362.45972 C 806.26142,362.45972 805.95543,362.43042 805.63642,362.37182 C 805.32067,362.31652 804.98701,362.23192 804.63545,362.11792 L 804.63545,361.19022 C 804.96748,361.36272 805.29463,361.49292 805.61689,361.58082 C 805.93916,361.66552 806.25817,361.70782 806.57392,361.70782 C 806.9971,361.70782 807.32262,361.63622 807.55049,361.49292 C 807.77835,361.34642 807.89228,361.14142 807.89228,360.87772 C 807.89228,360.63362 807.80927,360.44642 807.64326,360.31622 C 807.4805,360.18602 807.1208,360.06062 806.56416,359.94022 L 806.25166,359.86702 C 805.69502,359.74982 805.293,359.57072 805.0456,359.32982 C 804.79821,359.08572 804.67451,358.75202 804.67451,358.32892 C 804.67451,357.81452 804.8568,357.41742 805.22139,357.13752 C 805.58597,356.85752 806.10354,356.71752 806.77412,356.71752 C 807.10615,356.71752 807.41865,356.74202 807.71162,356.79082 C 808.00458,356.83962 808.27477,356.91292 808.52217,357.01052 M 810.23115,356.84942 L 811.12959,356.84942 L 811.12959,362.31812 L 810.23115,362.31812 L 810.23115,356.84942 M 810.23115,354.72052 L 811.12959,354.72052 L 811.12959,355.85822 L 810.23115,355.85822 L 810.23115,354.72052 M 816.60322,359.52032 C 816.60322,358.86922 816.46813,358.36472 816.19795,358.00662 C 815.93102,357.64852 815.55504,357.46952 815.07002,357.46952 C 814.58824,357.46952 814.21227,357.64852 813.94209,358.00662 C 813.67516,358.36472 813.5417,358.86922 813.5417,359.52032 C 813.5417,360.16812 813.67516,360.67102 813.94209,361.02912 C 814.21227,361.38712 814.58824,361.56622 815.07002,361.56622 C 815.55504,361.56622 815.93102,361.38712 816.19795,361.02912 C 816.46813,360.67102 816.60322,360.16812 816.60322,359.52032 M 817.50166,361.63942 C 817.50165,362.57042 817.29495,363.26212 816.88154,363.71462 C 816.46813,364.17032 815.83499,364.39822 814.98213,364.39822 C 814.66637,364.39822 814.36852,364.37382 814.08857,364.32502 C 813.80862,364.27942 813.53681,364.20782 813.27314,364.11012 L 813.27314,363.23612 C 813.53681,363.37932 813.79723,363.48512 814.05439,363.55352 C 814.31155,363.62182 814.5736,363.65602 814.84053,363.65602 C 815.42972,363.65602 815.8708,363.50142 816.16377,363.19212 C 816.45673,362.88622 816.60322,362.42232 816.60322,361.80052 L 816.60322,361.35622 C 816.41767,361.67852 816.18004,361.91942 815.89033,362.07892 C 815.60061,362.23842 815.25393,362.31812 814.85029,362.31812 C 814.17972,362.31812 813.63935,362.06262 813.2292,361.55152 C 812.81904,361.04052 812.61396,360.36342 812.61396,359.52032 C 812.61396,358.67392 812.81904,357.99522 813.2292,357.48412 C 813.63935,356.97312 814.17972,356.71752 814.85029,356.71752 C 815.25393,356.71752 815.60061,356.79732 815.89033,356.95682 C 816.18004,357.11632 816.41767,357.35722 816.60322,357.67952 L 816.60322,356.84942 L 817.50166,356.84942 L 817.50166,361.63942 M 823.89814,359.01732 L 823.89814,362.31812 L 822.99971,362.31812 L 822.99971,359.04662 C 822.9997,358.52912 822.89879,358.14172 822.69697,357.88452 C 822.49514,357.62742 822.19241,357.49882 821.78877,357.49882 C 821.30374,357.49882 820.92125,357.65342 820.64131,357.96272 C 820.36136,358.27192 820.22138,358.69352 820.22139,359.22732 L 820.22139,362.31812 L 819.31806,362.31812 L 819.31806,356.84942 L 820.22139,356.84942 L 820.22139,357.69902 C 820.43623,357.37022 820.68851,357.12442 820.97822,356.96172 C 821.27119,356.79892 821.6081,356.71752 821.98896,356.71752 C 822.61721,356.71752 823.09247,356.91292 823.41474,357.30352 C 823.73701,357.69082 823.89814,358.26212 823.89814,359.01732 M 833.29267,355.26732 L 833.29267,356.22932 C 832.91832,356.05022 832.56513,355.91682 832.2331,355.82892 C 831.90107,355.74102 831.58043,355.69702 831.27119,355.69702 C 830.73408,355.69702 830.31904,355.80122 830.02607,356.00952 C 829.73636,356.21792 829.5915,356.51412 829.5915,356.89822 C 829.5915,357.22052 829.68753,357.46462 829.87959,357.63062 C 830.0749,357.79342 830.44274,357.92522 830.9831,358.02612 L 831.57881,358.14822 C 832.31448,358.28822 832.85647,358.53562 833.20478,358.89042 C 833.55634,359.24202 833.73212,359.71402 833.73213,360.30642 C 833.73212,361.01282 833.49449,361.54832 833.01924,361.91292 C 832.54723,362.27742 831.85387,362.45972 830.93916,362.45972 C 830.5941,362.45972 830.22627,362.42072 829.83564,362.34252 C 829.44827,362.26442 829.04625,362.14892 828.62959,361.99592 L 828.62959,360.98022 C 829.02998,361.20482 829.42223,361.37412 829.80635,361.48802 C 830.19046,361.60202 830.56806,361.65892 830.93916,361.65892 C 831.50231,361.65892 831.93688,361.54832 832.24287,361.32692 C 832.54885,361.10562 832.70185,360.78982 832.70185,360.37962 C 832.70185,360.02162 832.59117,359.74162 832.36982,359.53982 C 832.15172,359.33802 831.79202,359.18662 831.29072,359.08572 L 830.69014,358.96852 C 829.95446,358.82202 829.42223,358.59252 829.09346,358.28002 C 828.76468,357.96752 828.60029,357.53302 828.60029,356.97632 C 828.60029,356.33182 828.82653,355.82402 829.279,355.45292 C 829.73473,355.08182 830.36136,354.89632 831.15889,354.89622 C 831.50068,354.89632 831.84899,354.92722 832.20381,354.98902 C 832.55862,355.05092 832.92157,355.14372 833.29267,355.26732 M 836.13935,355.29662 L 836.13935,356.84942 L 837.98994,356.84942 L 837.98994,357.54762 L 836.13935,357.54762 L 836.13935,360.51642 C 836.13935,360.96232 836.19957,361.24882 836.32002,361.37572 C 836.44371,361.50272 836.69274,361.56622 837.06709,361.56622 L 837.98994,361.56622 L 837.98994,362.31812 L 837.06709,362.31812 C 836.37373,362.31812 835.89521,362.18952 835.63154,361.93242 C 835.36787,361.67202 835.23603,361.20002 835.23603,360.51642 L 835.23603,357.54762 L 834.57685,357.54762 L 834.57685,356.84942 L 835.23603,356.84942 L 835.23603,355.29662 L 836.13935,355.29662 M 839.08369,360.15992 L 839.08369,356.84942 L 839.98213,356.84942 L 839.98213,360.12572 C 839.98213,360.64332 840.08304,361.03232 840.28486,361.29272 C 840.48668,361.54992 840.78942,361.67852 841.19306,361.67852 C 841.67809,361.67852 842.06057,361.52392 842.34053,361.21462 C 842.62372,360.90542 842.76533,360.48382 842.76533,359.95002 L 842.76533,356.84942 L 843.66377,356.84942 L 843.66377,362.31812 L 842.76533,362.31812 L 842.76533,361.47832 C 842.54723,361.81032 842.29332,362.05772 842.00361,362.22052 C 841.71715,362.38002 841.38349,362.45972 841.00263,362.45972 C 840.37438,362.45972 839.89749,362.26442 839.57197,361.87382 C 839.24645,361.48322 839.08369,360.91192 839.08369,360.15992 M 849.12275,357.67952 L 849.12275,354.72052 L 850.02119,354.72052 L 850.02119,362.31812 L 849.12275,362.31812 L 849.12275,361.49782 C 848.93395,361.82332 848.69469,362.06582 848.40498,362.22542 C 848.11852,362.38162 847.77347,362.45972 847.36982,362.45972 C 846.70901,362.45972 846.17028,362.19612 845.75361,361.66872 C 845.3402,361.14142 845.13349,360.44802 845.13349,359.58862 C 845.13349,358.72932 845.3402,358.03592 845.75361,357.50862 C 846.17028,356.98122 846.70901,356.71752 847.36982,356.71752 C 847.77347,356.71752 848.11852,356.79732 848.40498,356.95682 C 848.69469,357.11312 848.93395,357.35392 849.12275,357.67952 M 846.06123,359.58862 C 846.06123,360.24942 846.19632,360.76862 846.4665,361.14622 C 846.73994,361.52062 847.11429,361.70782 847.58955,361.70782 C 848.06481,361.70782 848.43915,361.52062 848.7126,361.14622 C 848.98603,360.76862 849.12275,360.24942 849.12275,359.58862 C 849.12275,358.92782 848.98603,358.41022 848.7126,358.03592 C 848.43915,357.65832 848.06481,357.46952 847.58955,357.46952 C 847.11429,357.46952 846.73994,357.65832 846.4665,358.03592 C 846.19632,358.41022 846.06123,358.92782 846.06123,359.58862 M 851.87178,356.84942 L 852.77021,356.84942 L 852.77021,362.31812 L 851.87178,362.31812 L 851.87178,356.84942 M 851.87178,354.72052 L 852.77021,354.72052 L 852.77021,355.85822 L 851.87178,355.85822 L 851.87178,354.72052 M 856.76435,357.47932 C 856.28258,357.47932 855.90172,357.66812 855.62178,358.04572 C 855.34183,358.42002 855.20185,358.93432 855.20185,359.58862 C 855.20185,360.24292 855.3402,360.75892 855.61689,361.13652 C 855.89684,361.51082 856.27933,361.69802 856.76435,361.69802 C 857.24287,361.69802 857.6221,361.50922 857.90205,361.13162 C 858.18199,360.75402 858.32197,360.23972 858.32197,359.58862 C 858.32197,358.94082 858.18199,358.42822 857.90205,358.05052 C 857.6221,357.66972 857.24287,357.47932 856.76435,357.47932 M 856.76435,356.71752 C 857.5456,356.71752 858.15921,356.97142 858.60517,357.47932 C 859.05113,357.98712 859.27411,358.69022 859.27412,359.58862 C 859.27411,360.48382 859.05113,361.18692 858.60517,361.69802 C 858.15921,362.20582 857.5456,362.45972 856.76435,362.45972 C 855.97985,362.45972 855.36461,362.20582 854.91865,361.69802 C 854.47594,361.18692 854.25459,360.48382 854.25459,359.58862 C 854.25459,358.69022 854.47594,357.98712 854.91865,357.47932 C 855.36461,356.97142 855.97985,356.71752 856.76435,356.71752 M 753.53681,366.84942 L 754.43525,366.84942 L 755.5583,371.11702 L 756.67646,366.84942 L 757.73603,366.84942 L 758.85908,371.11702 L 759.97724,366.84942 L 760.87568,366.84942 L 759.44502,372.31812 L 758.38545,372.31812 L 757.20869,367.83572 L 756.02705,372.31812 L 754.96748,372.31812 L 753.53681,366.84942 M 761.72041,366.84942 L 762.61885,366.84942 L 763.74189,371.11702 L 764.86006,366.84942 L 765.91963,366.84942 L 767.04267,371.11702 L 768.16084,366.84942 L 769.05928,366.84942 L 767.62861,372.31812 L 766.56904,372.31812 L 765.39228,367.83572 L 764.21064,372.31812 L 763.15107,372.31812 L 761.72041,366.84942 M 769.904,366.84942 L 770.80244,366.84942 L 771.92549,371.11702 L 773.04365,366.84942 L 774.10322,366.84942 L 775.22627,371.11702 L 776.34443,366.84942 L 777.24287,366.84942 L 775.81221,372.31812 L 774.75264,372.31812 L 773.57588,367.83572 L 772.39424,372.31812 L 771.33467,372.31812 L 769.904,366.84942 M 777.81904,371.07792 L 778.84931,371.07792 L 778.84931,372.31812 L 777.81904,372.31812 L 777.81904,371.07792 M 780.87568,364.72052 L 781.77412,364.72052 L 781.77412,372.31812 L 780.87568,372.31812 L 780.87568,364.72052 M 783.55635,370.15992 L 783.55635,366.84942 L 784.45478,366.84942 L 784.45478,370.12572 C 784.45478,370.64332 784.55569,371.03232 784.75752,371.29272 C 784.95934,371.54992 785.26207,371.67852 785.66572,371.67852 C 786.15074,371.67852 786.53323,371.52392 786.81318,371.21462 C 787.09638,370.90542 787.23798,370.48382 787.23799,369.95002 L 787.23799,366.84942 L 788.13642,366.84942 L 788.13642,372.31812 L 787.23799,372.31812 L 787.23799,371.47832 C 787.01988,371.81032 786.76598,372.05772 786.47627,372.22052 C 786.18981,372.38002 785.85615,372.45972 785.47529,372.45972 C 784.84703,372.45972 784.37015,372.26442 784.04463,371.87382 C 783.71911,371.48322 783.55635,370.91192 783.55635,370.15992 M 794.25459,367.89922 C 794.47919,367.49552 794.74775,367.19772 795.06025,367.00562 C 795.37275,366.81362 795.74058,366.71752 796.16377,366.71752 C 796.73342,366.71752 797.17287,366.91772 797.48213,367.31812 C 797.79136,367.71532 797.94599,368.28172 797.94599,369.01732 L 797.94599,372.31812 L 797.04267,372.31812 L 797.04267,369.04662 C 797.04267,368.52262 796.94989,368.13362 796.76435,367.87962 C 796.5788,367.62572 796.2956,367.49882 795.91474,367.49882 C 795.44924,367.49882 795.0814,367.65342 794.81123,367.96272 C 794.54104,368.27192 794.40595,368.69352 794.40596,369.22732 L 794.40596,372.31812 L 793.50264,372.31812 L 793.50264,369.04662 C 793.50263,368.51932 793.40986,368.13032 793.22431,367.87962 C 793.03876,367.62572 792.75231,367.49882 792.36494,367.49882 C 791.90595,367.49882 791.54137,367.65502 791.27119,367.96752 C 791.00101,368.27682 790.86591,368.69672 790.86592,369.22732 L 790.86592,372.31812 L 789.9626,372.31812 L 789.9626,366.84942 L 790.86592,366.84942 L 790.86592,367.69902 C 791.07099,367.36372 791.31676,367.11632 791.60322,366.95682 C 791.88968,366.79732 792.22985,366.71752 792.62373,366.71752 C 793.02086,366.71752 793.35777,366.81852 793.63447,367.02032 C 793.91441,367.22212 794.12112,367.51512 794.25459,367.89922 M 804.40107,369.35912 L 804.40107,369.79862 L 800.27021,369.79862 C 800.30927,370.41712 800.49482,370.88912 800.82685,371.21462 C 801.16214,371.53692 801.62763,371.69802 802.22334,371.69802 C 802.56839,371.69802 802.90205,371.65572 803.22431,371.57112 C 803.54983,371.48642 803.8721,371.35952 804.19111,371.19022 L 804.19111,372.03982 C 803.86884,372.17652 803.53844,372.28072 803.1999,372.35232 C 802.86135,372.42392 802.51793,372.45972 802.16963,372.45972 C 801.29723,372.45972 800.6055,372.20582 800.09443,371.69802 C 799.58662,371.19022 799.33271,370.50332 799.33271,369.63752 C 799.33271,368.74232 799.5736,368.03262 800.05537,367.50862 C 800.54039,366.98122 801.19306,366.71752 802.01338,366.71752 C 802.74905,366.71752 803.3301,366.95522 803.75654,367.43042 C 804.18622,367.90242 804.40107,368.54532 804.40107,369.35912 M 803.50264,369.09552 C 803.49612,368.60392 803.35777,368.21172 803.0876,367.91872 C 802.82067,367.62572 802.46585,367.47932 802.02314,367.47932 C 801.52184,367.47932 801.11982,367.62092 800.81709,367.90412 C 800.51761,368.18732 800.34508,368.58602 800.29951,369.10042 L 803.50264,369.09552 M 810.40205,369.01732 L 810.40205,372.31812 L 809.50361,372.31812 L 809.50361,369.04662 C 809.50361,368.52912 809.4027,368.14172 809.20088,367.88452 C 808.99905,367.62742 808.69632,367.49882 808.29267,367.49882 C 807.80765,367.49882 807.42516,367.65342 807.14521,367.96272 C 806.86526,368.27192 806.72529,368.69352 806.72529,369.22732 L 806.72529,372.31812 L 805.82197,372.31812 L 805.82197,366.84942 L 806.72529,366.84942 L 806.72529,367.69902 C 806.94013,367.37022 807.19241,367.12442 807.48213,366.96172 C 807.77509,366.79892 808.11201,366.71752 808.49287,366.71752 C 809.12112,366.71752 809.59638,366.91292 809.91865,367.30352 C 810.24091,367.69082 810.40204,368.26212 810.40205,369.01732 M 815.69014,367.01052 L 815.69014,367.86012 C 815.43623,367.72992 815.17255,367.63232 814.89912,367.56712 C 814.62568,367.50202 814.34248,367.46952 814.04951,367.46952 C 813.60354,367.46952 813.26826,367.53792 813.04365,367.67462 C 812.8223,367.81132 812.71162,368.01642 812.71162,368.28982 C 812.71162,368.49812 812.79137,368.66252 812.95088,368.78302 C 813.11038,368.90022 813.43102,369.01252 813.91279,369.11992 L 814.22041,369.18822 C 814.85843,369.32502 815.3109,369.51862 815.57783,369.76932 C 815.84801,370.01672 815.9831,370.36342 815.9831,370.80932 C 815.9831,371.31712 815.78128,371.71922 815.37764,372.01542 C 814.97724,372.31162 814.42548,372.45972 813.72236,372.45972 C 813.42939,372.45972 813.1234,372.43042 812.80439,372.37182 C 812.48864,372.31652 812.15498,372.23192 811.80342,372.11792 L 811.80342,371.19022 C 812.13545,371.36272 812.4626,371.49292 812.78486,371.58082 C 813.10713,371.66552 813.42614,371.70782 813.74189,371.70782 C 814.16507,371.70782 814.49059,371.63622 814.71846,371.49292 C 814.94632,371.34642 815.06025,371.14142 815.06025,370.87772 C 815.06025,370.63362 814.97724,370.44642 814.81123,370.31622 C 814.64847,370.18602 814.28877,370.06062 813.73213,369.94022 L 813.41963,369.86702 C 812.86299,369.74982 812.46097,369.57072 812.21357,369.32982 C 811.96618,369.08572 811.84248,368.75202 811.84248,368.32892 C 811.84248,367.81452 812.02477,367.41742 812.38935,367.13752 C 812.75394,366.85752 813.27151,366.71752 813.94209,366.71752 C 814.27412,366.71752 814.58662,366.74202 814.87959,366.79082 C 815.17255,366.83962 815.44274,366.91292 815.69014,367.01052 M 818.28779,365.29662 L 818.28779,366.84942 L 820.13838,366.84942 L 820.13838,367.54762 L 818.28779,367.54762 L 818.28779,370.51642 C 818.28779,370.96232 818.34801,371.24882 818.46846,371.37572 C 818.59215,371.50272 818.84117,371.56622 819.21553,371.56622 L 820.13838,371.56622 L 820.13838,372.31812 L 819.21553,372.31812 C 818.52216,372.31812 818.04365,372.18952 817.77998,371.93242 C 817.51631,371.67202 817.38447,371.20002 817.38447,370.51642 L 817.38447,367.54762 L 816.72529,367.54762 L 816.72529,366.84942 L 817.38447,366.84942 L 817.38447,365.29662 L 818.28779,365.29662 M 821.23213,370.15992 L 821.23213,366.84942 L 822.13056,366.84942 L 822.13056,370.12572 C 822.13056,370.64332 822.23147,371.03232 822.4333,371.29272 C 822.63512,371.54992 822.93785,371.67852 823.3415,371.67852 C 823.82652,371.67852 824.20901,371.52392 824.48896,371.21462 C 824.77216,370.90542 824.91376,370.48382 824.91377,369.95002 L 824.91377,366.84942 L 825.81221,366.84942 L 825.81221,372.31812 L 824.91377,372.31812 L 824.91377,371.47832 C 824.69567,371.81032 824.44176,372.05772 824.15205,372.22052 C 823.86559,372.38002 823.53193,372.45972 823.15107,372.45972 C 822.52282,372.45972 822.04593,372.26442 821.72041,371.87382 C 821.39489,371.48322 821.23213,370.91192 821.23213,370.15992 M 831.27119,367.67952 L 831.27119,364.72052 L 832.16963,364.72052 L 832.16963,372.31812 L 831.27119,372.31812 L 831.27119,371.49782 C 831.08238,371.82332 830.84313,372.06582 830.55342,372.22542 C 830.26695,372.38162 829.9219,372.45972 829.51826,372.45972 C 828.85745,372.45972 828.31871,372.19612 827.90205,371.66872 C 827.48864,371.14142 827.28193,370.44802 827.28193,369.58862 C 827.28193,368.72932 827.48864,368.03592 827.90205,367.50862 C 828.31871,366.98122 828.85745,366.71752 829.51826,366.71752 C 829.9219,366.71752 830.26695,366.79732 830.55342,366.95682 C 830.84313,367.11312 831.08238,367.35392 831.27119,367.67952 M 828.20967,369.58862 C 828.20967,370.24942 828.34476,370.76862 828.61494,371.14622 C 828.88838,371.52062 829.26272,371.70782 829.73799,371.70782 C 830.21324,371.70782 830.58759,371.52062 830.86103,371.14622 C 831.13447,370.76862 831.27118,370.24942 831.27119,369.58862 C 831.27118,368.92782 831.13447,368.41022 830.86103,368.03592 C 830.58759,367.65832 830.21324,367.46952 829.73799,367.46952 C 829.26272,367.46952 828.88838,367.65832 828.61494,368.03592 C 828.34476,368.41022 828.20967,368.92782 828.20967,369.58862 M 834.02021,366.84942 L 834.91865,366.84942 L 834.91865,372.31812 L 834.02021,372.31812 L 834.02021,366.84942 M 834.02021,364.72052 L 834.91865,364.72052 L 834.91865,365.85822 L 834.02021,365.85822 L 834.02021,364.72052 M 838.91279,367.47932 C 838.43102,367.47932 838.05016,367.66812 837.77021,368.04572 C 837.49026,368.42002 837.35029,368.93432 837.35029,369.58862 C 837.35029,370.24292 837.48864,370.75892 837.76533,371.13652 C 838.04528,371.51082 838.42776,371.69802 838.91279,371.69802 C 839.3913,371.69802 839.77054,371.50922 840.05049,371.13162 C 840.33043,370.75402 840.4704,370.23972 840.47041,369.58862 C 840.4704,368.94082 840.33043,368.42822 840.05049,368.05052 C 839.77054,367.66972 839.3913,367.47932 838.91279,367.47932 M 838.91279,366.71752 C 839.69404,366.71752 840.30764,366.97142 840.75361,367.47932 C 841.19957,367.98712 841.42255,368.69022 841.42256,369.58862 C 841.42255,370.48382 841.19957,371.18692 840.75361,371.69802 C 840.30764,372.20582 839.69404,372.45972 838.91279,372.45972 C 838.12828,372.45972 837.51305,372.20582 837.06709,371.69802 C 836.62438,371.18692 836.40303,370.48382 836.40303,369.58862 C 836.40303,368.69022 836.62438,367.98712 837.06709,367.47932 C 837.51305,366.97142 838.12828,366.71752 838.91279,366.71752 M 842.8581,371.07792 L 843.88838,371.07792 L 843.88838,372.31812 L 842.8581,372.31812 L 842.8581,371.07792 M 850.46064,369.01732 L 850.46064,372.31812 L 849.56221,372.31812 L 849.56221,369.04662 C 849.5622,368.52912 849.46129,368.14172 849.25947,367.88452 C 849.05764,367.62742 848.75491,367.49882 848.35127,367.49882 C 847.86624,367.49882 847.48375,367.65342 847.20381,367.96272 C 846.92386,368.27192 846.78388,368.69352 846.78388,369.22732 L 846.78388,372.31812 L 845.88056,372.31812 L 845.88056,366.84942 L 846.78388,366.84942 L 846.78388,367.69902 C 846.99873,367.37022 847.25101,367.12442 847.54072,366.96172 C 847.83369,366.79892 848.1706,366.71752 848.55146,366.71752 C 849.17971,366.71752 849.65497,366.91292 849.97724,367.30352 C 850.2995,367.69082 850.46064,368.26212 850.46064,369.01732 M 856.94013,369.35912 L 856.94013,369.79862 L 852.80928,369.79862 C 852.84834,370.41712 853.03388,370.88912 853.36592,371.21462 C 853.7012,371.53692 854.16669,371.69802 854.7624,371.69802 C 855.10745,371.69802 855.44111,371.65572 855.76338,371.57112 C 856.08889,371.48642 856.41116,371.35952 856.73017,371.19022 L 856.73017,372.03982 C 856.4079,372.17652 856.0775,372.28072 855.73896,372.35232 C 855.40042,372.42392 855.05699,372.45972 854.70869,372.45972 C 853.83629,372.45972 853.14456,372.20582 852.63349,371.69802 C 852.12568,371.19022 851.87178,370.50332 851.87178,369.63752 C 851.87178,368.74232 852.11266,368.03262 852.59443,367.50862 C 853.07946,366.98122 853.73212,366.71752 854.55244,366.71752 C 855.28811,366.71752 855.86917,366.95522 856.2956,367.43042 C 856.72529,367.90242 856.94013,368.54532 856.94013,369.35912 M 856.0417,369.09552 C 856.03518,368.60392 855.89684,368.21172 855.62666,367.91872 C 855.35973,367.62572 855.00491,367.47932 854.56221,367.47932 C 854.0609,367.47932 853.65888,367.62092 853.35615,367.90412 C 853.05667,368.18732 852.88414,368.58602 852.83857,369.10042 L 856.0417,369.09552 M 859.28388,365.29662 L 859.28388,366.84942 L 861.13447,366.84942 L 861.13447,367.54762 L 859.28388,367.54762 L 859.28388,370.51642 C 859.28388,370.96232 859.3441,371.24882 859.46455,371.37572 C 859.58824,371.50272 859.83727,371.56622 860.21162,371.56622 L 861.13447,371.56622 L 861.13447,372.31812 L 860.21162,372.31812 C 859.51826,372.31812 859.03974,372.18952 858.77607,371.93242 C 858.5124,371.67202 858.38056,371.20002 858.38056,370.51642 L 858.38056,367.54762 L 857.72138,367.54762 L 857.72138,366.84942 L 858.38056,366.84942 L 858.38056,365.29662 L 859.28388,365.29662" id="text3077" style="font-size:10px;font-style:normal;font-variant:normal;font-weight:normal;font-stretch:normal;line-height:100%;writing-mode:lr-tb;text-anchor:start;fill:#000000;fill-opacity:1;stroke:none;stroke-width:1px;stroke-linecap:butt;stroke-linejoin:miter;stroke-opacity:1;font-family:Bitstream Vera Sans"/>
    </g>
  </g>
</svg>
